<?xml version="1.0" encoding="UTF-8"?>
<!-- Created with Inkscape (http://www.inkscape.org/) -->
<svg width="512" height="512" version="1.1" viewBox="0 0 135.47 135.47" xmlns="http://www.w3.org/2000/svg">
 <path d="m10.306 18.564h114.85v83.491l-24.016-0.14292 0.0779 14.435-28.791-14.435-62.124 0.14292z" fill="#fff" stroke="#fff" stroke-width="7.9375"/>
 <path d="m10.306 18.564h114.85v83.491l-24.016-0.14292 0.0779 14.435-28.791-14.435-62.124 0.14292z" fill="#fff" stroke="#000" stroke-width="3.4396"/>
 <g transform="matrix(.26458 0 0 .26458 -2.7154 -3.0013)" stroke-width="5" style="shape-inside:url(#rect4727);white-space:pre" aria-label="lingo">
  <path d="m84.861 249.33c0 12-0.32 23.52-1.44 32l0.32 0.48c1.92-0.32 5.6-0.48 7.52-0.48s5.6 0.16 7.52 0.48l0.32-0.48c-1.28-9.12-1.44-19.84-1.44-32v-48c0-12 0.64-19.84 1.44-30.08 0-1.12-0.48-1.6-1.44-1.6-4.16 1.6-7.52 2.72-13.92 3.2l-0.32 0.48c1.12 6.88 1.44 18.72 1.44 30.88z"/>
  <path d="m123.58 185.81c0 4.32 3.84 8.16 8.16 8.16s8.16-3.84 8.16-8.16-3.84-8.16-8.16-8.16-8.16 3.84-8.16 8.16zm1.6 57.92v8.8c0 12-0.32 20.16-1.44 28.8l0.32 0.48c1.92-0.32 5.6-0.48 7.52-0.48s5.6 0.16 7.52 0.48l0.32-0.48c-1.28-8.96-1.44-16.64-1.44-28.8v-11.36c0-12 0.32-17.76 1.44-27.52 0-1.44-0.32-1.6-1.44-1.6-3.68 0.48-10.56 0.48-13.92 0.16l-0.32 0.48c0.96 6.88 1.44 19.04 1.44 31.04z"/>
  <path d="m225.98 252.53c0-5.12 0.32-11.04 0.32-16.16 0-16.64-5.44-25.28-19.84-25.28-6.08 0-17.44 2.4-27.68 14.4l-0.32-0.48v-11.68c-0.16-1.12-0.32-1.6-0.96-1.6-3.68 0.8-9.44 0.96-12.96 0.48l-0.32 0.48c1.12 7.04 1.44 19.04 1.44 31.04v8.8c0 12-0.16 20.16-1.44 28.8l0.32 0.48c1.92-0.32 5.6-0.48 7.52-0.48s5.6 0.16 7.52 0.48l0.32-0.48c-1.28-9.12-1.44-16.64-1.44-28.8v-18.72c8.16-9.6 17.44-13.12 23.2-13.12 8.16 0 11.52 3.2 11.52 16.16v15.68c0 12-0.32 20.32-1.44 28.8l0.32 0.48c1.92-0.32 5.6-0.48 7.52-0.48s5.6 0.16 7.52 0.48l0.32-0.48c-1.28-9.12-1.44-16.64-1.44-28.8z"/>
  <path d="m254.78 297.97c0-5.28 4.8-11.2 10.4-14.24 4.64 0 12-0.48 14.24-0.48 7.68 0 12.48 0.16 16.96 2.72 4.64 2.72 6.24 7.36 6.24 11.52 0 9.76-13.12 14.88-26.88 14.88-10.4 0-20.96-3.52-20.96-14.4zm46.24-62.24c0-11.04-4.32-16.16-8.16-18.56 4.8 0.32 10.08 0.96 16.8 1.6l0.48-0.48c-0.32-1.44-0.48-2.72-0.48-4.16s0.16-2.72 0.48-4.16l-0.48-0.48c-7.68 0.8-13.44 2.4-25.28 3.04-2.88-0.96-6.4-1.44-9.76-1.44-12.64 0-27.2 8.48-27.2 24.32 0 12 6.88 17.44 11.36 20-4.64 3.2-10.24 7.84-10.24 13.28 0 6.56 3.84 12.32 12.32 13.92-4.32 1.76-9.44 4.8-13.44 8-2.08 3.04-3.68 7.68-3.68 10.56 0 12.64 13.76 18.08 30.72 18.08 24.96 0 39.84-10.4 39.84-25.44 0-7.04-2.24-12-6.72-15.84-6.08-5.12-16.96-5.28-22.56-5.28-2.72 0-9.12 0.32-12.8 0.8-2.24 0.16-3.84 0.32-4.64 0.32-4.48 0-9.28-0.64-9.28-7.52 0-3.2 0.8-5.92 4.32-8.96 2.08 1.12 6.88 2.24 11.84 2.24 16.64 0 26.56-11.2 26.56-23.84zm-12.48 0.16c0 9.76-4 17.28-13.6 17.28-11.52 0-15.04-7.52-15.04-18.56 0-10.56 4.8-17.44 14.08-17.44 10.4 0 14.56 7.36 14.56 18.72z"/>
  <path d="m324.54 248.53c0 19.2 12.64 34.4 33.92 34.4 21.12 0 33.92-14.88 33.92-35.84 0-21.76-11.68-36-33.28-36-20.96 0-34.56 14.72-34.56 37.44zm33.44-31.04c16.96 0 20.32 13.12 20.32 32.48 0 15.36-7.68 26.56-18.4 26.56-16.96 0-21.28-18.4-21.28-30.72 0-13.92 4.32-28.32 19.36-28.32z"/>
 </g>
</svg>
